<svg width="68" height="59" viewBox="0 0 68 59" fill="none" xmlns="http://www.w3.org/2000/svg">
<path d="M66.7778 14.0016C66.1731 12.9538 65.3071 12.0806 64.2643 11.4672C63.2216 10.8538 62.0376 10.5212 60.828 10.5017H16.0295L13.9995 2.59197C13.7944 1.82843 13.3369 1.15682 12.7014 0.686532C12.0658 0.216245 11.2898 -0.0250128 10.4997 0.00205261H3.49989C2.57166 0.00205261 1.68145 0.370789 1.02509 1.02715C0.368737 1.6835 0 2.57371 0 3.50194C0 4.43017 0.368737 5.32037 1.02509 5.97673C1.68145 6.63309 2.57166 7.00182 3.49989 7.00182H7.83974L17.4994 42.9107C17.7045 43.6742 18.1621 44.3458 18.7976 44.8161C19.4331 45.2864 20.2092 45.5276 20.9993 45.5006H52.4983C53.1446 45.4986 53.7777 45.3177 54.3276 44.978C54.8774 44.6382 55.3223 44.1528 55.6132 43.5756L67.0928 20.6164C67.5904 19.5735 67.822 18.4236 67.767 17.2694C67.7121 16.1152 67.3722 14.9925 66.7778 14.0016Z" fill="#F9F9F9"/>
<path d="M20.2493 59C23.1487 59 25.4992 56.6496 25.4992 53.7502C25.4992 50.8508 23.1487 48.5004 20.2493 48.5004C17.3499 48.5004 14.9995 50.8508 14.9995 53.7502C14.9995 56.6496 17.3499 59 20.2493 59Z" fill="#F9F9F9"/>
<path d="M55.2481 59C58.1475 59 60.4979 56.6496 60.4979 53.7502C60.4979 50.8508 58.1475 48.5004 55.2481 48.5004C52.3487 48.5004 49.9983 50.8508 49.9983 53.7502C49.9983 56.6496 52.3487 59 55.2481 59Z" fill="#F9F9F9"/>
</svg>
