<svg width="807" height="296" viewBox="0 0 807 296" fill="none" xmlns="http://www.w3.org/2000/svg">
<path d="M115.387 89.7342H6.23716V111.356H48.6499V244H72.9748V111.356H115.387V89.7342ZM197.616 244C208.011 244 218.198 241.921 227.762 237.971C236.91 234.021 245.018 228.407 252.295 221.338C259.364 214.27 264.769 206.161 268.719 196.805C272.669 187.45 274.749 177.262 274.749 166.867C274.749 156.472 272.669 146.284 268.719 136.721C264.769 127.573 259.364 119.465 252.295 112.188C245.018 105.119 236.91 99.7137 227.762 95.7635C218.198 91.8133 208.011 89.7342 197.616 89.7342C187.22 89.7342 177.033 91.8133 167.677 95.7635C158.322 99.7137 150.213 105.119 143.144 112.188C136.076 119.465 130.462 127.573 126.512 136.721C122.562 146.284 120.483 156.472 120.483 166.867C120.483 177.262 122.562 187.45 126.512 196.805C130.462 206.161 136.076 214.27 143.144 221.338C150.213 228.407 158.322 234.021 167.677 237.971C177.033 241.921 187.22 244 197.616 244ZM197.616 113.851C211.753 113.851 225.059 119.465 235.039 129.444C245.018 139.424 250.632 152.73 250.632 166.867C250.632 181.005 245.018 194.311 235.039 204.29C225.059 214.27 211.753 219.883 197.616 219.883C183.478 219.883 170.172 214.27 160.193 204.29C150.213 194.311 144.6 181.005 144.6 166.867C144.6 152.73 150.213 139.424 160.193 129.444C170.172 119.465 183.478 113.851 197.616 113.851ZM369.269 188.281C377.585 185.371 383.407 180.589 387.149 176.431C395.257 167.491 399.623 155.017 399.623 140.879C399.623 126.533 395.257 114.059 387.149 105.119C380.912 98.0504 369.061 89.7342 348.687 89.7342H323.322H302.947V244H327.064V191.816H344.736L383.615 244H410.85L369.269 188.281ZM327.064 170.194V111.564H348.687C358.666 111.564 366.151 114.267 370.932 119.673C376.754 125.91 377.793 134.642 377.793 140.879C377.793 146.908 376.754 155.64 370.932 161.877C366.151 167.283 358.666 170.194 348.687 170.194H327.064ZM546.56 163.956H493.337V185.787H522.443V214.27C522.236 214.27 522.236 214.27 522.236 214.27C519.533 215.725 516.622 216.764 513.711 217.596C513.711 217.596 513.503 217.804 513.296 217.804C513.088 217.804 512.672 217.804 512.464 218.012C512.256 218.012 512.048 218.012 511.84 218.22C511.632 218.22 511.424 218.22 511.217 218.22C511.009 218.428 510.593 218.428 510.385 218.428C510.177 218.636 510.177 218.636 509.969 218.636C508.514 218.843 506.851 219.259 505.395 219.467C505.187 219.467 505.187 219.467 504.979 219.467C504.771 219.467 504.356 219.467 504.148 219.467C503.94 219.467 503.732 219.467 503.732 219.675C503.316 219.675 503.108 219.675 502.692 219.675C502.485 219.675 502.277 219.675 502.069 219.675C501.861 219.675 501.653 219.675 501.445 219.675C501.237 219.675 500.821 219.675 500.613 219.675C500.405 219.883 500.198 219.883 499.99 219.883C499.574 219.883 498.95 219.883 498.534 219.883C484.397 219.883 471.091 214.27 461.111 204.29C454.666 197.845 450.092 189.945 447.597 181.213C446.558 177.47 445.934 173.52 445.726 169.57C445.518 168.53 445.518 167.699 445.518 166.867C445.518 165.828 445.518 164.996 445.726 163.956C445.726 163.333 445.726 162.501 445.726 161.669C445.934 159.59 446.35 157.511 446.766 155.432C446.766 155.224 446.766 155.224 446.974 155.017C448.221 149.403 450.3 144.205 453.419 139.216C453.419 139.008 453.627 138.592 453.835 138.384C454.25 137.76 454.666 137.137 455.082 136.513C455.082 136.513 455.29 136.305 455.498 136.097C456.33 134.85 457.161 133.602 458.201 132.355C458.409 132.355 458.409 132.147 458.409 132.147C459.24 131.107 460.28 130.276 461.111 129.444C463.814 126.533 466.933 124.039 470.259 121.96C470.675 121.752 471.091 121.544 471.299 121.336C479.407 116.346 488.763 113.851 498.534 113.851C498.95 113.851 499.574 113.851 499.99 113.851C499.99 113.851 500.198 113.851 500.405 113.851C500.613 113.851 501.029 113.851 501.237 113.851C501.445 113.851 501.653 113.851 501.861 113.851C502.069 113.851 502.277 114.059 502.485 114.059C502.9 114.059 503.316 114.059 503.732 114.059C503.94 114.059 504.148 114.059 504.356 114.059C504.564 114.267 504.979 114.267 505.187 114.267C505.395 114.267 505.395 114.267 505.603 114.267C505.811 114.267 506.227 114.475 506.435 114.475C506.643 114.475 506.643 114.475 506.851 114.475C507.682 114.683 508.722 114.683 509.553 114.891C509.761 115.099 509.969 115.099 509.969 115.099C510.385 115.099 510.593 115.099 510.801 115.307C511.009 115.307 511.217 115.307 511.424 115.307C511.632 115.514 511.84 115.514 512.048 115.514C515.167 116.346 518.493 117.594 521.612 119.049C525.354 120.92 528.888 122.999 532.007 125.702V97.2188C532.007 97.2188 532.007 97.2188 531.799 97.2188C531.383 97.0109 530.968 96.803 530.552 96.5951C530.344 96.5951 530.344 96.3872 530.344 96.3872C522.028 92.6449 513.296 90.5658 504.356 89.9421C503.732 89.7342 503.108 89.7342 502.485 89.7342C502.485 89.7342 502.485 89.7342 502.277 89.7342C501.861 89.7342 501.237 89.7342 500.613 89.7342H500.405C499.782 89.7342 499.158 89.7342 498.534 89.7342C488.139 89.7342 477.952 91.6054 468.596 95.7635C459.24 99.5058 451.132 105.119 444.063 112.188C436.994 119.257 431.381 127.573 427.431 136.721C423.896 145.037 422.025 153.977 421.401 162.917C421.401 164.164 421.401 165.62 421.401 166.867C421.401 169.362 421.609 172.065 421.817 174.56C422.441 182.252 424.52 189.737 427.431 196.805C431.381 206.161 436.994 214.27 444.063 221.338C449.053 226.536 454.874 230.902 461.111 234.228C463.398 235.684 465.893 236.931 468.596 237.971C469.635 238.387 470.675 238.802 471.715 239.218C472.546 239.426 473.17 239.842 474.001 240.05C474.001 240.05 474.001 240.05 474.209 240.05C481.902 242.753 490.218 244 498.534 244C499.158 244 499.782 244 500.405 244H500.613C501.237 244 501.861 244 502.277 244C502.485 244 502.485 244 502.485 244C512.256 243.376 521.404 241.297 530.136 237.347C530.344 237.139 530.344 237.139 530.344 237.139C530.76 236.931 531.383 236.723 531.799 236.515C532.215 236.308 532.631 236.1 532.839 235.892C533.047 235.892 533.047 235.892 533.254 235.892C533.462 235.684 533.462 235.684 533.67 235.476C534.086 235.476 534.502 235.268 534.71 235.06C534.918 234.852 535.126 234.852 535.334 234.644C535.749 234.436 535.957 234.436 536.373 234.228C536.581 234.021 536.789 234.021 536.997 233.813C537.205 233.605 537.413 233.605 537.621 233.397C538.036 233.189 538.244 232.981 538.452 232.773C538.868 232.773 539.076 232.565 539.284 232.357C539.492 232.357 539.7 232.149 539.907 231.941C540.115 231.941 540.531 231.734 540.739 231.526C540.947 231.318 540.947 231.318 541.155 231.318L546.56 227.575V185.787V163.956ZM669.502 244H695.906L628.961 82.6654L561.807 244H588.419L601.517 210.943H656.404L669.502 244ZM610.249 189.321L628.961 142.334L647.672 189.321H610.249ZM805.368 222.17H740.918V89.7342H716.801V244H740.71H805.368V222.17Z" fill="#E9E9E9"/>
<path d="M16.5306 52.5388C12.9744 52.5388 10.3342 51.4971 8.61005 49.4137C6.92177 47.3303 6.07763 44.6003 6.07763 41.2237C6.07763 38.3142 6.67032 35.6021 7.85571 33.0877C9.07702 30.5732 10.8551 28.5616 13.19 27.053C15.5248 25.5084 18.3087 24.7361 21.5416 24.7361C24.3793 24.7361 26.6782 25.3647 28.4384 26.6219L26.9297 31.9023C25.1336 30.5732 23.3196 29.9087 21.4877 29.9087C19.6198 29.9087 18.0033 30.3936 16.6384 31.3635C15.2734 32.2974 14.2317 33.5726 13.5132 35.189C12.7948 36.7696 12.4356 38.5476 12.4356 40.5233C12.4356 42.7145 12.9205 44.4207 13.8904 45.642C14.8603 46.8274 16.3689 47.4201 18.4164 47.4201C20.3921 47.4201 22.4396 46.7376 24.5589 45.3726L24.2356 50.653C22.0444 51.9102 19.4761 52.5388 16.5306 52.5388ZM44.2075 52.5388C41.262 52.5388 38.9271 51.533 37.2029 49.5215C35.4787 47.474 34.6166 44.8158 34.6166 41.547C34.6166 38.6734 35.2273 35.9613 36.4486 33.411C37.7058 30.8247 39.448 28.7412 41.675 27.1607C43.9381 25.5443 46.5064 24.7361 49.3801 24.7361C52.0741 24.7361 54.1396 25.6161 55.5764 27.3763L56.4385 25.221H61.7728L58.6476 43.7562C58.504 44.5105 58.4321 45.193 58.4321 45.8037C58.4321 46.558 58.5938 47.0429 58.9171 47.2584C59.2763 47.4381 59.9767 47.5279 61.0184 47.5279L59.5636 52.5388C57.8753 52.5388 56.5822 52.449 55.6842 52.2694C54.8221 52.1257 54.1216 51.8204 53.5828 51.3534C53.0799 50.8865 52.6309 50.168 52.2358 49.1982C51.1222 50.2399 49.9189 51.0661 48.6257 51.6767C47.3685 52.2514 45.8957 52.5388 44.2075 52.5388ZM46.3088 47.4201C47.9971 47.4201 49.416 46.8813 50.5655 45.8037C51.7149 44.726 52.5591 43.361 53.0979 41.7087C53.6367 40.0563 53.9061 38.3321 53.9061 36.5361C53.9061 34.3808 53.475 32.7464 52.6129 31.6329C51.7868 30.4834 50.5475 29.9087 48.8951 29.9087C47.3865 29.9087 46.0215 30.3936 44.8002 31.3635C43.6148 32.3333 42.6808 33.6444 41.9983 35.2968C41.3158 36.9132 40.9746 38.6913 40.9746 40.6311C40.9746 42.7145 41.4056 44.3668 42.2677 45.5881C43.1658 46.8094 44.5128 47.4201 46.3088 47.4201ZM75.2111 30.1781H71.5472L73.002 25.221H76.0732L77.2047 18.7553C77.5639 16.6 78.3901 14.8758 79.6832 13.5827C80.9764 12.2536 82.97 11.589 85.6641 11.589C86.4902 11.589 87.9989 11.7327 90.1901 12.0201L88.6814 17.1388C87.7834 16.9233 87.0111 16.8155 86.3645 16.8155C85.5383 16.8155 84.9277 16.9592 84.5325 17.2466C84.1374 17.498 83.8141 17.947 83.5627 18.5936C83.3472 19.2402 83.1137 20.2639 82.8622 21.6648L82.2157 25.221H87.9271L87.065 30.1781H81.3536L77.528 52H71.3855L75.2111 30.1781ZM104.755 52.5388C100.947 52.5388 98.0556 51.4791 96.08 49.3598C94.1403 47.2046 93.1704 44.4207 93.1704 41.0082C93.1704 38.2064 93.799 35.5662 95.0562 33.0877C96.3135 30.5732 98.0736 28.5616 100.337 27.053C102.6 25.5084 105.186 24.7361 108.096 24.7361C110.825 24.7361 112.927 25.4186 114.4 26.7836C115.872 28.1126 116.609 29.9266 116.609 32.2256C116.609 35.0633 115.459 37.2545 113.16 38.7991C110.897 40.3437 107.826 41.116 103.947 41.116C102.151 41.116 100.714 40.9903 99.6361 40.7388C99.708 43.1096 100.337 44.8158 101.522 45.8575C102.743 46.8992 104.252 47.4201 106.048 47.4201C108.778 47.4201 111.472 46.7376 114.13 45.3726L113.538 50.4913C112.388 51.102 111.059 51.6049 109.55 52C108.042 52.3592 106.443 52.5388 104.755 52.5388ZM103.031 37.0749C106.012 37.0749 108.149 36.6438 109.443 35.7817C110.736 34.9196 111.382 33.8779 111.382 32.6566C111.382 31.6149 111.005 30.8965 110.251 30.5014C109.532 30.1062 108.706 29.9087 107.772 29.9087C105.94 29.9087 104.36 30.5912 103.031 31.9562C101.702 33.2852 100.75 34.8837 100.175 36.7516C100.893 36.9671 101.845 37.0749 103.031 37.0749ZM105.455 16.9772L116.016 11.2119L115.046 17.7315L104.593 21.1799L105.455 16.9772ZM150.954 53.2932C147.47 53.2932 144.884 52.5029 143.195 50.9224C141.507 49.3059 140.663 47.2046 140.663 44.6183C140.663 42.1397 141.381 39.9486 142.818 38.0448C144.291 36.105 146.338 34.1653 148.961 32.2256C147.416 29.2801 146.644 26.6578 146.644 24.3589C146.644 22.3114 147.218 20.5154 148.368 18.9708C149.517 17.4262 151.008 16.2408 152.84 15.4146C154.672 14.5525 156.576 14.1215 158.552 14.1215C160.779 14.1215 162.485 14.6782 163.67 15.7918C164.856 16.8694 165.448 18.3781 165.448 20.3178C165.448 22.042 164.999 23.6225 164.101 25.0594C163.203 26.4962 162.108 27.7534 160.815 28.8311C159.557 29.9087 157.995 31.0581 156.127 32.2795L161.784 41.4393C162.431 39.8228 163.131 37.021 163.886 33.0338H169.813C169.454 35.0454 168.879 37.2006 168.089 39.4995C167.334 41.7985 166.31 43.9178 165.017 45.8575L169.112 52H162.054L160.761 49.9525C158.103 52.1796 154.834 53.2932 150.954 53.2932ZM154.079 29.1543C155.48 28.0767 156.558 27.2146 157.312 26.568C158.067 25.8855 158.677 25.1312 159.144 24.305C159.647 23.4788 159.899 22.5808 159.899 21.611C159.899 19.8508 159.054 18.9708 157.366 18.9708C156.073 18.9708 154.959 19.4378 154.025 20.3717C153.127 21.2697 152.678 22.5269 152.678 24.1434C152.678 25.6521 153.145 27.3224 154.079 29.1543ZM152.463 48.6055C154.762 48.6055 156.72 47.8511 158.336 46.3425L151.278 35.6201C148.512 38.2064 147.129 40.9005 147.129 43.7023C147.129 45.1391 147.542 46.3245 148.368 47.2584C149.194 48.1565 150.559 48.6055 152.463 48.6055ZM199.271 25.221H204.606L204.552 28.0228C205.773 26.9452 206.994 26.137 208.216 25.5982C209.473 25.0234 210.874 24.7361 212.418 24.7361C215.364 24.7361 217.663 25.7778 219.315 27.8612C220.968 29.9446 221.794 32.6746 221.794 36.0511C221.794 39.1763 221.237 41.996 220.123 44.5105C219.01 47.025 217.429 49.0006 215.382 50.4374C213.37 51.8384 211.036 52.5388 208.377 52.5388C206.725 52.5388 205.288 52.2155 204.067 51.5689C202.881 50.9224 201.93 50.0244 201.211 48.8749L198.409 65.0393H192.267L199.271 25.221ZM207.892 47.4201C209.365 47.4201 210.658 46.9531 211.772 46.0192C212.921 45.0493 213.819 43.7382 214.466 42.0858C215.113 40.4335 215.436 38.6015 215.436 36.59C215.436 34.5425 215.023 32.926 214.197 31.7406C213.406 30.5193 212.203 29.9087 210.587 29.9087C209.042 29.9087 207.641 30.3936 206.384 31.3635C205.162 32.2974 204.193 33.6085 203.474 35.2968C202.792 36.9851 202.45 38.8709 202.45 40.9543C202.45 43.1096 202.899 44.726 203.797 45.8037C204.731 46.8813 206.096 47.4201 207.892 47.4201ZM240.86 52.5388C237.375 52.5388 234.699 51.4612 232.831 49.3059C230.964 47.1507 230.03 44.4027 230.03 41.0621C230.03 38.2244 230.694 35.5483 232.023 33.0338C233.352 30.5193 235.184 28.5078 237.519 26.9991C239.854 25.4904 242.476 24.7361 245.386 24.7361C248.87 24.7361 251.546 25.8137 253.414 27.969C255.282 30.1242 256.216 32.8721 256.216 36.2128C256.216 39.0505 255.551 41.7266 254.222 44.2411C252.893 46.7556 251.061 48.7671 248.726 50.2758C246.392 51.7845 243.769 52.5388 240.86 52.5388ZM241.668 47.4201C243.249 47.4201 244.667 46.9352 245.925 45.9653C247.182 44.9954 248.152 43.7023 248.834 42.0858C249.517 40.4335 249.858 38.6374 249.858 36.6977C249.858 34.5065 249.409 32.8362 248.511 31.6868C247.613 30.5014 246.284 29.9087 244.524 29.9087C242.943 29.9087 241.524 30.3936 240.267 31.3635C239.046 32.2974 238.094 33.5906 237.411 35.2429C236.729 36.8594 236.388 38.6374 236.388 40.5772C236.388 42.7683 236.837 44.4566 237.735 45.642C238.633 46.8274 239.944 47.4201 241.668 47.4201ZM268.559 25.221H273.894L273.84 28.0228C275.061 26.9452 276.282 26.137 277.504 25.5982C278.761 25.0234 280.162 24.7361 281.706 24.7361C284.652 24.7361 286.951 25.7778 288.603 27.8612C290.256 29.9446 291.082 32.6746 291.082 36.0511C291.082 39.1763 290.525 41.996 289.411 44.5105C288.298 47.025 286.717 49.0006 284.67 50.4374C282.658 51.8384 280.323 52.5388 277.665 52.5388C276.013 52.5388 274.576 52.2155 273.355 51.5689C272.169 50.9224 271.218 50.0244 270.499 48.8749L267.697 65.0393H261.555L268.559 25.221ZM277.18 47.4201C278.653 47.4201 279.946 46.9531 281.06 46.0192C282.209 45.0493 283.107 43.7382 283.754 42.0858C284.4 40.4335 284.724 38.6015 284.724 36.59C284.724 34.5425 284.311 32.926 283.485 31.7406C282.694 30.5193 281.491 29.9087 279.874 29.9087C278.33 29.9087 276.929 30.3936 275.672 31.3635C274.45 32.2974 273.481 33.6085 272.762 35.2968C272.08 36.9851 271.738 38.8709 271.738 40.9543C271.738 43.1096 272.187 44.726 273.085 45.8037C274.019 46.8813 275.384 47.4201 277.18 47.4201Z" fill="#E9E9E9"/>
</svg>
